<?xml version="1.0" encoding="utf-8"?>
<!-- Generator: Adobe Illustrator 24.1.2, SVG Export Plug-In . SVG Version: 6.00 Build 0)  -->
<svg version="1.1" xmlns="http://www.w3.org/2000/svg" xmlns:xlink="http://www.w3.org/1999/xlink" x="0px" y="0px"
	 viewBox="0 0 52.5 48" style="enable-background:new 0 0 52.5 48;" xml:space="preserve">
<style type="text/css">
	.st0{enable-background:new    ;}
	.st1{fill:#FFFFFF;}
</style>
<g class="st0">
<path class="st1" d="M 19.015625 0 L 3.40625 0 L 3.40625 -27.109375 L 19.015625 -27.109375 L 19.015625 -22.390625 L 9.15625 -22.390625 L 9.15625 -16.4375 L 18.328125 -16.4375 L 18.328125 -11.734375 L 9.15625 -11.734375 L 9.15625 -4.75 L 19.015625 -4.75 Z M 19.015625 0 "/>
<path class="st1" d="M 28.015625 -13.59375 C 28.015625 -11.570312 27.773438 -9.722656 27.296875 -8.046875 C 26.816406 -6.378906 26.082031 -4.929688 25.09375 -3.703125 C 24.113281 -2.484375 22.863281 -1.523438 21.34375 -0.828125 L 27.859375 6.453125 L 20.5 6.453125 L 15.53125 0.375 C 15.445312 0.375 15.375 0.375 15.3125 0.375 C 15.25 0.375 15.179688 0.375 15.109375 0.375 C 12.898438 0.375 10.984375 0.046875 9.359375 -0.609375 C 7.742188 -1.273438 6.40625 -2.226562 5.34375 -3.46875 C 4.289062 -4.707031 3.503906 -6.179688 2.984375 -7.890625 C 2.460938 -9.609375 2.203125 -11.519531 2.203125 -13.625 C 2.203125 -16.425781 2.660156 -18.867188 3.578125 -20.953125 C 4.503906 -23.035156 5.925781 -24.648438 7.84375 -25.796875 C 9.757812 -26.953125 12.191406 -27.53125 15.140625 -27.53125 C 18.085938 -27.53125 20.507812 -26.953125 22.40625 -25.796875 C 24.300781 -24.648438 25.707031 -23.03125 26.625 -20.9375 C 27.550781 -18.851562 28.015625 -16.40625 28.015625 -13.59375 Z M 8.234375 -13.59375 C 8.234375 -11.695312 8.46875 -10.066406 8.9375 -8.703125 C 9.414062 -7.335938 10.160156 -6.285156 11.171875 -5.546875 C 12.191406 -4.816406 13.503906 -4.453125 15.109375 -4.453125 C 16.742188 -4.453125 18.066406 -4.816406 19.078125 -5.546875 C 20.085938 -6.285156 20.820312 -7.335938 21.28125 -8.703125 C 21.75 -10.066406 21.984375 -11.695312 21.984375 -13.59375 C 21.984375 -16.4375 21.453125 -18.671875 20.390625 -20.296875 C 19.328125 -21.929688 17.578125 -22.75 15.140625 -22.75 C 13.523438 -22.75 12.207031 -22.378906 11.1875 -21.640625 C 10.164062 -20.910156 9.414062 -19.859375 8.9375 -18.484375 C 8.46875 -17.117188 8.234375 -15.488281 8.234375 -13.59375 Z M 8.234375 -13.59375 "/>
<path class="st1" d="M 25.46875 -27.109375 L 25.46875 -9.5625 C 25.46875 -7.695312 25.054688 -6.015625 24.234375 -4.515625 C 23.410156 -3.015625 22.164062 -1.820312 20.5 -0.9375 C 18.84375 -0.0625 16.753906 0.375 14.234375 0.375 C 10.648438 0.375 7.914062 -0.535156 6.03125 -2.359375 C 4.15625 -4.191406 3.21875 -6.617188 3.21875 -9.640625 L 3.21875 -27.109375 L 8.953125 -27.109375 L 8.953125 -10.515625 C 8.953125 -8.273438 9.410156 -6.703125 10.328125 -5.796875 C 11.242188 -4.898438 12.597656 -4.453125 14.390625 -4.453125 C 15.648438 -4.453125 16.671875 -4.664062 17.453125 -5.09375 C 18.234375 -5.53125 18.8125 -6.195312 19.1875 -7.09375 C 19.5625 -8 19.75 -9.148438 19.75 -10.546875 L 19.75 -27.109375 Z M 25.46875 -27.109375 "/>
<path class="st1" d="M 3.40625 0 L 3.40625 -27.109375 L 9.15625 -27.109375 L 9.15625 0 Z M 3.40625 0 "/>
<path class="st1" d="M 10.796875 -27.109375 C 14.285156 -27.109375 16.835938 -26.421875 18.453125 -25.046875 C 20.066406 -23.679688 20.875 -21.726562 20.875 -19.1875 C 20.875 -18.039062 20.6875 -16.953125 20.3125 -15.921875 C 19.9375 -14.890625 19.328125 -13.976562 18.484375 -13.1875 C 17.640625 -12.40625 16.535156 -11.785156 15.171875 -11.328125 C 13.804688 -10.878906 12.132812 -10.65625 10.15625 -10.65625 L 6.859375 -10.65625 L 6.859375 0 L 3.703125 0 L 3.703125 -27.109375 Z M 10.5 -24.421875 L 6.859375 -24.421875 L 6.859375 -13.359375 L 9.8125 -13.359375 C 11.539062 -13.359375 12.984375 -13.546875 14.140625 -13.921875 C 15.296875 -14.296875 16.160156 -14.898438 16.734375 -15.734375 C 17.316406 -16.566406 17.609375 -17.675781 17.609375 -19.0625 C 17.609375 -20.863281 17.035156 -22.207031 15.890625 -23.09375 C 14.742188 -23.976562 12.945312 -24.421875 10.5 -24.421875 Z M 10.5 -24.421875 "/>
<path class="st1" d="M 20.703125 0 L 17.375 -8.609375 L 6.5 -8.609375 L 3.1875 0 L 0 0 L 10.609375 -27.21875 L 13.4375 -27.21875 L 23.96875 0 Z M 16.421875 -11.40625 L 13.25 -19.953125 C 13.175781 -20.171875 13.054688 -20.53125 12.890625 -21.03125 C 12.722656 -21.539062 12.550781 -22.066406 12.375 -22.609375 C 12.207031 -23.160156 12.066406 -23.601562 11.953125 -23.9375 C 11.828125 -23.425781 11.691406 -22.921875 11.546875 -22.421875 C 11.410156 -21.921875 11.273438 -21.457031 11.140625 -21.03125 C 11.003906 -20.601562 10.890625 -20.242188 10.796875 -19.953125 L 7.5625 -11.40625 Z M 16.421875 -11.40625 "/>
<path class="st1" d="M 11.03125 -27.109375 C 13.257812 -27.109375 15.097656 -26.832031 16.546875 -26.28125 C 17.992188 -25.726562 19.078125 -24.890625 19.796875 -23.765625 C 20.515625 -22.640625 20.875 -21.207031 20.875 -19.46875 C 20.875 -18.03125 20.613281 -16.832031 20.09375 -15.875 C 19.570312 -14.914062 18.890625 -14.140625 18.046875 -13.546875 C 17.210938 -12.953125 16.320312 -12.5 15.375 -12.1875 L 22.796875 0 L 19.125 0 L 12.5 -11.3125 L 6.859375 -11.3125 L 6.859375 0 L 3.703125 0 L 3.703125 -27.109375 Z M 10.84375 -24.375 L 6.859375 -24.375 L 6.859375 -13.984375 L 11.15625 -13.984375 C 13.375 -13.984375 15.003906 -14.429688 16.046875 -15.328125 C 17.085938 -16.234375 17.609375 -17.5625 17.609375 -19.3125 C 17.609375 -21.15625 17.054688 -22.457031 15.953125 -23.21875 C 14.847656 -23.988281 13.144531 -24.375 10.84375 -24.375 Z M 10.84375 -24.375 "/>
<path class="st1" d="M 18.796875 0 L 3.703125 0 L 3.703125 -27.109375 L 18.796875 -27.109375 L 18.796875 -24.328125 L 6.859375 -24.328125 L 6.859375 -15.546875 L 18.109375 -15.546875 L 18.109375 -12.8125 L 6.859375 -12.8125 L 6.859375 -2.78125 L 18.796875 -2.78125 Z M 18.796875 0 "/>
<path class="st1" d="M 24.90625 0 L 21.265625 0 L 6.484375 -22.765625 L 6.34375 -22.765625 C 6.375 -22.160156 6.414062 -21.472656 6.46875 -20.703125 C 6.519531 -19.929688 6.5625 -19.109375 6.59375 -18.234375 C 6.625 -17.359375 6.640625 -16.472656 6.640625 -15.578125 L 6.640625 0 L 3.703125 0 L 3.703125 -27.109375 L 7.328125 -27.109375 L 22.046875 -4.40625 L 22.171875 -4.40625 C 22.148438 -4.84375 22.117188 -5.457031 22.078125 -6.25 C 22.046875 -7.050781 22.015625 -7.910156 21.984375 -8.828125 C 21.953125 -9.753906 21.9375 -10.613281 21.9375 -11.40625 L 21.9375 -27.109375 L 24.90625 -27.109375 Z M 24.90625 0 "/>
<path class="st0" d="M 12.03125 0 L 8.859375 0 L 8.859375 -24.328125 L 0.328125 -24.328125 L 0.328125 -27.109375 L 20.515625 -27.109375 L 20.515625 -24.328125 L 12.03125 -24.328125 Z M 12.03125 0 "/>
</g>
</svg>